.
..............................Site Info...........................

 -   http://www.scenetime.com  *_*   

SceneTime is going to Close sign up on march/1, hurry up! get in before the doors are closed.

     We care to share . Join us on  http://www.scenetime.com 

    Be the first to get new release at  http://www.scenetime.com

        Seed back for speed


...................................NFO:.................................................








































          
          
              
              
                    
                    
                    
                    

Camel.Spiders.2011.DVDRiP.AC3-5.1.XviD-SiC

Poster:
[img]http://img545.imageshack.us/img545/460/camelspidersdvdcoverema.jpg[/img]

IMDB Link:
http://www.imdb.com/title/tt1618372/

Description:
Based on actual creatures that for years have tormented our armed forces in the Middle East, these creatures have now invaded the southwestern deserts of the United States... 

General
Complete name                    : Camel.Spiders.2011.DVDRiP.AC3-5.1.XviD-SiC.avi
Format                           : AVI
Format/Info                      : Audio Video Interleave
File size                        : 1.37 GiB
Duration                         : 1h 24mn
Overall bit rate                 : 2 319 Kbps

Video
ID                               : 0
Format                           : MPEG-4 Visual
Format profile                   : Advanced Simple@L5
Format settings, BVOP            : 1
Format settings, QPel            : No
Format settings, GMC             : No warppoints
Format settings, Matrix          : Default (H.263)
Codec ID                         : XVID
Codec ID/Hint                    : XviD
Duration                         : 1h 24mn
Bit rate                         : 1 928 Kbps
Width                            : 656 pixels
Height                           : 368 pixels
Display aspect ratio             : 16:9
Frame rate                       : 23.976 fps
Color space                      : YUV
Chroma subsampling               : 4:2:0
Bit depth                        : 8 bits
Scan type                        : Progressive
Compression mode                 : Lossy
Bits/(Pixel*Frame)               : 0.333
Stream size                      : 1.14 GiB (83%)
Writing library                  : XviD 1.2.1 (UTC 2008-12-04)

Audio
ID                               : 1
Format                           : AC-3
Format/Info                      : Audio Coding 3
Mode extension                   : CM (complete main)
Codec ID                         : 2000
Duration                         : 1h 24mn
Bit rate mode                    : Constant
Bit rate                         : 384 Kbps
Channel(s)                       : 6 channels
Channel positions                : Front: L C R, Side: L R, LFE
Sampling rate                    : 48.0 KHz
Bit depth                        : 16 bits
Compression mode                 : Lossy
Stream size                      : 233 MiB (17%)
Alignment                        : Aligned on interleaves
Interleave, duration             : 64 ms (1.53 video frames)
Interleave, preload duration     : 960 ms
Title                            : VTS_02_1 T80 3_2ch 448Kbps DELAY 0ms_new

Screenshots:
[img]http://img15.imageshack.us/img15/7805/camelspiders2011dvdripa.png[/img]
[img]http://img11.imageshack.us/img11/7805/camelspiders2011dvdripa.png[/img]
[img]http://img545.imageshack.us/img545/7805/camelspiders2011dvdripa.png[/img]
[img]http://img36.imageshack.us/img36/7805/camelspiders2011dvdripa.png[/img]
[img]http://img856.imageshack.us/img856/7805/camelspiders2011dvdripa.png[/img]


Note : Oh, SyFy. We give you, big ass CGI spiders, and the pussy whipped husband from TV's "Charmed". 

Source: Our own / NTSC Retail - Big whoop. Wanna fight about it? SiC presents to you - A movie you won't even want to steal and pretend like it was your source. Enjoy!

Respects to CaptainHomey, Respects to T00NG0D, ELEKTRI4KA, PA, YeFsTe, Box, MrRep and everyone in the struggle... RiP MU